# xmcd
#
# Track frame offsets:
#	150
#	7801
#	19228
#	28297
#	42482
#	50229
#	59567
#	69805
#	77620
#	82404
#	96112
#	103058
#	110167
#	111287
#	115547
#	117465
#	121237
#	127760
#	132038
#	139565
#	145654
#	147708
#	157958
#	170162
#	175488
#	186667
#	204296
#	210788
#	212254
#	220643
#	224487
#	235660
#
# Disc length: 3253 seconds
#
# Revision: 1
# Processed by: cddbd v1.5.2PL0 Copyright (c) Steve Scherf et al.
# Submitted via: audiograbber 1.83.01
#
DISCID=d80cb320
DTITLE=Fitzgerald Kusz - Klaus Brandl - Chris Schmitt - krouhä
DYEAR=2009
DGENRE=Blues
TTITLE0=uns gäihds goud
TTITLE1=blues-verdruss
TTITLE2=walking blues
TTITLE3=krouhä
TTITLE4=schimpfsonett
TTITLE5=haikus
TTITLE6=iich möchäd ämall
TTITLE7=new york
TTITLE8=st. stebastian in ny
TTITLE9=london-bongo
TTITLE10=eisenbahn
TTITLE11=foäbloon
TTITLE12=kalchreuth
TTITLE13=is wos
TTITLE14=mach wosd willsd
TTITLE15=du aa - rock
TTITLE16=du aa - tango
TTITLE17=du aa - waltz
TTITLE18=raddzn lachn - dialog
TTITLE19=es gibd dooch
TTITLE20=muggn
TTITLE21=muggn-blues
TTITLE22=es koo saa
TTITLE23=ungschrieme gedichde
TTITLE24=babiäschifflä
TTITLE25=ouwäih
TTITLE26=abboddheislä
TTITLE27=wunderdiidn
TTITLE28=laid ibä laid
TTITLE29=bolli-eddülehn
TTITLE30=liebe
TTITLE31=ausklang
EXTD=
EXTT0=
EXTT1=
EXTT2=
EXTT3=
EXTT4=
EXTT5=
EXTT6=
EXTT7=
EXTT8=
EXTT9=
EXTT10=
EXTT11=
EXTT12=
EXTT13=
EXTT14=
EXTT15=
EXTT16=
EXTT17=
EXTT18=
EXTT19=
EXTT20=
EXTT21=
EXTT22=
EXTT23=
EXTT24=
EXTT25=
EXTT26=
EXTT27=
EXTT28=
EXTT29=
EXTT30=
EXTT31=
PLAYORDER=
